<?xml version="1.0" encoding="utf-8"?>
<!-- Svg Vector Icons : http://www.onlinewebfonts.com/icon -->
<!DOCTYPE svg PUBLIC "-//W3C//DTD SVG 1.1//EN" "http://www.w3.org/Graphics/SVG/1.1/DTD/svg11.dtd">
<svg version="1.1" xmlns="http://www.w3.org/2000/svg" xmlns:xlink="http://www.w3.org/1999/xlink" x="0px" y="0px" viewBox="0 0 1000 1000" enable-background="new 0 0 1000 1000" xml:space="preserve">
<metadata> Svg Vector Icons : http://www.onlinewebfonts.com/icon </metadata>
<g><path d="M500,989.4c-89.5,0-172.3-23.5-243.9-64.9c-68.3-15.6-134.3-10.1-198,16.8c-13.4,5.6-28,2.2-35.8-12.3c-14.6-30.2,6.7-40.3,24.6-49.2c34.7-17.9,78.3-23.5,118.6-23.5C70.4,766.8,10,640.4,10,500.6c0-270.7,219.3-490,490-490c270.7,0,490,219.3,490,490C990,770.2,770.8,989.4,500,989.4L500,989.4z M500,74.3c-234.9,0-425.1,191.3-425.1,426.2c0,233.8,190.2,425.1,425.1,425.1c234.9,0,425.1-191.3,425.1-425.1C925.1,265.6,735,74.3,500,74.3L500,74.3z M751.8,641.5c-75,0-135.4-60.4-135.4-135.4c0-75,60.4-135.4,135.4-135.4s135.4,60.4,135.4,135.4C887.1,581.1,826.7,641.5,751.8,641.5L751.8,641.5z M751.8,435.7c-39.2,0-71.6,31.3-71.6,70.5c0,39.2,32.4,71.6,71.6,71.6c39.2,0,70.5-32.4,70.5-71.6C822.2,467,790.9,435.7,751.8,435.7L751.8,435.7z M506.8,384.2c-75,0-135.4-60.4-135.4-135.4c0-75,60.4-135.4,135.4-135.4s135.4,60.4,135.4,135.4C642.1,323.8,581.7,384.2,506.8,384.2L506.8,384.2z M506.8,178.4c-39.2,0-71.6,31.3-71.6,70.5c0,39.2,32.4,70.5,71.6,70.5s70.5-31.3,70.5-70.5C577.2,209.7,545.9,178.4,506.8,178.4L506.8,178.4z M248.3,641.5c-75,0-135.4-60.4-135.4-135.4c0-75,60.4-135.4,135.4-135.4c75,0,135.4,60.4,135.4,135.4C383.7,581.1,323.3,641.5,248.3,641.5L248.3,641.5z M248.3,435.7c-39.2,0-70.5,31.3-70.5,70.5c0,39.2,31.3,71.6,70.5,71.6c39.2,0,71.6-32.4,71.6-71.6C319.9,467,287.5,435.7,248.3,435.7L248.3,435.7z M422.8,500.6c0-43.6,33.6-78.3,77.2-78.3s77.2,34.7,77.2,78.3s-33.6,77.2-77.2,77.2S422.8,544.2,422.8,500.6L422.8,500.6z M506.8,615.8c75,0,135.4,60.4,135.4,135.4c0,75-60.4,135.4-135.4,135.4s-135.4-60.4-135.4-135.4C371.4,676.2,431.8,615.8,506.8,615.8L506.8,615.8z M506.8,822.7c39.2,0,70.5-32.4,70.5-71.6c0-39.2-31.3-70.5-70.5-70.5s-71.6,31.3-71.6,70.5C435.1,790.3,467.6,822.7,506.8,822.7z"/></g>
</svg>